<svg width="595" height="392" viewBox="0 0 595 392" fill="none" xmlns="http://www.w3.org/2000/svg">
<g filter="url(#filter0_d_886_92)">
<mask id="path-1-outside-1_886_92" maskUnits="userSpaceOnUse" x="68" y="131" width="458" height="135" fill="black">
<rect fill="white" x="68" y="131" width="458" height="135"/>
<path d="M167.101 261.659H139.037L133.78 253.387C129.915 254.237 125.662 254.855 121.178 254.855C90.9497 254.855 72.1631 234.986 72.1631 205.608V195.249C72.1631 165.561 90.9497 145.692 121.178 145.692C151.562 145.692 170.271 165.716 170.271 195.249V205.608C170.271 221.38 164.859 234.291 155.195 242.95L167.101 261.659ZM101.928 206.304C101.928 223.776 109.272 232.513 120.096 233.054C120.483 233.054 120.869 232.976 121.178 232.822L112.52 218.983H137.259L138.187 220.22C139.578 216.509 140.429 211.87 140.429 206.304V194.939C140.429 178.472 132.543 169.89 121.178 169.89C109.814 169.89 101.928 178.472 101.928 194.939V206.304ZM265.209 169.89V253H236.681V239.316H235.212C233.125 245.655 225.703 254.16 211.246 254.16C194.701 254.16 184.187 244.264 184.187 224.008V169.89H213.643V216.509C213.643 227.874 219.982 230.116 224.543 230.116C230.187 230.116 235.676 225.941 235.676 216.277V169.89H265.209Z"/>
<path d="M281.058 148.553C281.058 140.203 287.939 135.023 296.443 135.023C304.87 135.023 311.75 140.203 311.75 148.553C311.75 157.057 304.87 162.237 296.443 162.237C287.939 162.237 281.058 157.057 281.058 148.553ZM281.676 253V169.89H311.132V253H281.676ZM325.512 253V238.079L359.374 193.007V191.847H326.826V169.89H394.628V187.285L363.394 229.729V230.889H396.252V253H325.512ZM406.07 253V238.079L439.932 193.007V191.847H407.384V169.89H475.186V187.285L443.953 229.729V230.889H476.81V253H406.07ZM491.19 148.553C491.19 140.203 498.07 135.023 506.575 135.023C515.002 135.023 521.882 140.203 521.882 148.553C521.882 157.057 515.002 162.237 506.575 162.237C498.07 162.237 491.19 157.057 491.19 148.553ZM491.808 253V169.89H521.264V253H491.808Z"/>
</mask>
<path d="M167.101 261.659H139.037L133.78 253.387C129.915 254.237 125.662 254.855 121.178 254.855C90.9497 254.855 72.1631 234.986 72.1631 205.608V195.249C72.1631 165.561 90.9497 145.692 121.178 145.692C151.562 145.692 170.271 165.716 170.271 195.249V205.608C170.271 221.38 164.859 234.291 155.195 242.95L167.101 261.659ZM101.928 206.304C101.928 223.776 109.272 232.513 120.096 233.054C120.483 233.054 120.869 232.976 121.178 232.822L112.52 218.983H137.259L138.187 220.22C139.578 216.509 140.429 211.87 140.429 206.304V194.939C140.429 178.472 132.543 169.89 121.178 169.89C109.814 169.89 101.928 178.472 101.928 194.939V206.304ZM265.209 169.89V253H236.681V239.316H235.212C233.125 245.655 225.703 254.16 211.246 254.16C194.701 254.16 184.187 244.264 184.187 224.008V169.89H213.643V216.509C213.643 227.874 219.982 230.116 224.543 230.116C230.187 230.116 235.676 225.941 235.676 216.277V169.89H265.209Z" fill="#FF5A36"/>
<path d="M281.058 148.553C281.058 140.203 287.939 135.023 296.443 135.023C304.87 135.023 311.75 140.203 311.75 148.553C311.75 157.057 304.87 162.237 296.443 162.237C287.939 162.237 281.058 157.057 281.058 148.553ZM281.676 253V169.89H311.132V253H281.676ZM325.512 253V238.079L359.374 193.007V191.847H326.826V169.89H394.628V187.285L363.394 229.729V230.889H396.252V253H325.512ZM406.07 253V238.079L439.932 193.007V191.847H407.384V169.89H475.186V187.285L443.953 229.729V230.889H476.81V253H406.07ZM491.19 148.553C491.19 140.203 498.07 135.023 506.575 135.023C515.002 135.023 521.882 140.203 521.882 148.553C521.882 157.057 515.002 162.237 506.575 162.237C498.07 162.237 491.19 157.057 491.19 148.553ZM491.808 253V169.89H521.264V253H491.808Z" fill="white"/>
<path d="M167.101 261.659V265.617H174.312L170.441 259.534L167.101 261.659ZM139.037 261.659L135.697 263.782L136.863 265.617H139.037V261.659ZM133.78 253.387L137.121 251.263L135.635 248.925L132.93 249.521L133.78 253.387ZM155.195 242.95L152.554 240.001L150.053 242.242L151.856 245.075L155.195 242.95ZM120.096 233.054L119.898 237.007L119.997 237.012H120.096V233.054ZM121.178 232.822L122.949 236.362L126.844 234.414L124.534 230.722L121.178 232.822ZM112.52 218.983V215.025H105.373L109.164 221.083L112.52 218.983ZM137.259 218.983L140.426 216.608L139.238 215.025H137.259V218.983ZM138.187 220.22L135.02 222.595L139.356 228.376L141.893 221.61L138.187 220.22ZM167.101 261.659V257.701H139.037V261.659V265.617H167.101V261.659ZM139.037 261.659L142.378 259.536L137.121 251.263L133.78 253.387L130.439 255.51L135.697 263.782L139.037 261.659ZM133.78 253.387L132.93 249.521C129.261 250.328 125.303 250.897 121.178 250.897V254.855V258.814C126.022 258.814 130.569 258.146 134.631 257.252L133.78 253.387ZM121.178 254.855V250.897C106.956 250.897 95.7794 246.243 88.1607 238.477C80.5312 230.699 76.1214 219.445 76.1214 205.608H72.1631H68.2048C68.2048 221.149 73.1883 234.519 82.5093 244.021C91.841 253.533 105.173 258.814 121.178 258.814V254.855ZM72.1631 205.608H76.1214V195.249H72.1631H68.2048V205.608H72.1631ZM72.1631 195.249H76.1214C76.1214 181.246 80.5378 169.915 88.1669 162.103C95.7838 154.304 106.956 149.65 121.178 149.65V145.692V141.734C105.172 141.734 91.8366 147.015 82.5031 156.572C73.1817 166.116 68.2048 179.563 68.2048 195.249H72.1631ZM121.178 145.692V149.65C135.474 149.65 146.665 154.34 154.283 162.158C161.915 169.99 166.313 181.323 166.313 195.249H170.271H174.229C174.229 179.641 169.272 166.196 159.953 156.633C150.621 147.056 137.266 141.734 121.178 141.734V145.692ZM170.271 195.249H166.313V205.608H170.271H174.229V195.249H170.271ZM170.271 205.608H166.313C166.313 220.452 161.243 232.216 152.554 240.001L155.195 242.95L157.837 245.898C168.475 236.365 174.229 222.307 174.229 205.608H170.271ZM155.195 242.95L151.856 245.075L163.762 263.784L167.101 261.659L170.441 259.534L158.535 240.824L155.195 242.95ZM101.928 206.304H97.9696C97.9696 215.53 99.9 222.999 103.739 228.339C107.674 233.812 113.358 236.68 119.898 237.007L120.096 233.054L120.294 229.1C116.01 228.886 112.611 227.116 110.167 223.717C107.628 220.186 105.886 214.55 105.886 206.304H101.928ZM120.096 233.054V237.012C120.958 237.012 121.978 236.848 122.949 236.362L121.178 232.822L119.408 229.281C119.6 229.185 119.755 229.142 119.851 229.122C119.95 229.101 120.03 229.095 120.096 229.095V233.054ZM121.178 232.822L124.534 230.722L115.875 216.883L112.52 218.983L109.164 221.083L117.823 234.921L121.178 232.822ZM112.52 218.983V222.941H137.259V218.983V215.025H112.52V218.983ZM137.259 218.983L134.092 221.358L135.02 222.595L138.187 220.22L141.354 217.845L140.426 216.608L137.259 218.983ZM138.187 220.22L141.893 221.61C143.477 217.386 144.387 212.266 144.387 206.304H140.429H136.471C136.471 211.475 135.68 215.632 134.481 218.83L138.187 220.22ZM140.429 206.304H144.387V194.939H140.429H136.471V206.304H140.429ZM140.429 194.939H144.387C144.387 186.124 142.28 178.878 138.146 173.754C133.932 168.532 127.941 165.932 121.178 165.932V169.89V173.849C125.781 173.849 129.415 175.54 131.985 178.725C134.635 182.009 136.471 187.287 136.471 194.939H140.429ZM121.178 169.89V165.932C114.416 165.932 108.425 168.532 104.211 173.754C100.077 178.878 97.9696 186.124 97.9696 194.939H101.928H105.886C105.886 187.287 107.722 182.009 110.372 178.725C112.942 175.54 116.576 173.849 121.178 173.849V169.89ZM101.928 194.939H97.9696V206.304H101.928H105.886V194.939H101.928ZM265.209 169.89H269.167V165.932H265.209V169.89ZM265.209 253V256.958H269.167V253H265.209ZM236.681 253H232.723V256.958H236.681V253ZM236.681 239.316H240.64V235.358H236.681V239.316ZM235.212 239.316V235.358H232.348L231.453 238.078L235.212 239.316ZM184.187 169.89V165.932H180.229V169.89H184.187ZM213.643 169.89H217.601V165.932H213.643V169.89ZM235.676 169.89V165.932H231.718V169.89H235.676ZM265.209 169.89H261.251V253H265.209H269.167V169.89H265.209ZM265.209 253V249.042H236.681V253V256.958H265.209V253ZM236.681 253H240.64V239.316H236.681H232.723V253H236.681ZM236.681 239.316V235.358H235.212V239.316V243.274H236.681V239.316ZM235.212 239.316L231.453 238.078C229.873 242.876 223.909 250.201 211.246 250.201V254.16V258.118C227.497 258.118 236.377 248.434 238.972 240.554L235.212 239.316ZM211.246 254.16V250.201C203.768 250.201 198.164 247.985 194.399 243.971C190.601 239.923 188.145 233.486 188.145 224.008H184.187H180.229C180.229 234.786 183.03 243.424 188.626 249.388C194.253 255.387 202.18 258.118 211.246 258.118V254.16ZM184.187 224.008H188.145V169.89H184.187H180.229V224.008H184.187ZM184.187 169.89V173.849H213.643V169.89V165.932H184.187V169.89ZM213.643 169.89H209.684V216.509H213.643H217.601V169.89H213.643ZM213.643 216.509H209.684C209.684 222.923 211.492 227.536 214.704 230.488C217.847 233.378 221.687 234.074 224.543 234.074V230.116V226.158C222.839 226.158 221.229 225.733 220.061 224.66C218.963 223.65 217.601 221.46 217.601 216.509H213.643ZM224.543 230.116V234.074C228.354 234.074 232.233 232.65 235.135 229.505C238.037 226.36 239.635 221.86 239.635 216.277H235.676H231.718C231.718 220.359 230.571 222.777 229.317 224.136C228.064 225.494 226.377 226.158 224.543 226.158V230.116ZM235.676 216.277H239.635V169.89H235.676H231.718V216.277H235.676ZM235.676 169.89V173.849H265.209V169.89V165.932H235.676V169.89ZM281.676 253H277.718V256.958H281.676V253ZM281.676 169.89V165.932H277.718V169.89H281.676ZM311.132 169.89H315.09V165.932H311.132V169.89ZM311.132 253V256.958H315.09V253H311.132ZM281.058 148.553H285.016C285.016 145.56 286.209 143.282 288.108 141.687C290.068 140.04 292.968 138.981 296.443 138.981V135.023V131.065C291.413 131.065 286.621 132.596 283.015 135.626C279.347 138.708 277.1 143.195 277.1 148.553H281.058ZM296.443 135.023V138.981C299.871 138.981 302.751 140.036 304.705 141.683C306.598 143.279 307.792 145.559 307.792 148.553H311.75H315.709C315.709 143.196 313.462 138.712 309.808 135.631C306.215 132.601 301.442 131.065 296.443 131.065V135.023ZM311.75 148.553H307.792C307.792 151.646 306.58 153.963 304.693 155.568C302.744 157.225 299.871 158.278 296.443 158.278V162.237V166.195C301.442 166.195 306.222 164.659 309.821 161.599C313.48 158.488 315.709 153.964 315.709 148.553H311.75ZM296.443 162.237V158.278C292.969 158.278 290.075 157.22 288.12 155.564C286.227 153.96 285.016 151.645 285.016 148.553H281.058H277.1C277.1 153.964 279.329 158.491 283.003 161.604C286.614 164.663 291.413 166.195 296.443 166.195V162.237ZM281.676 253H285.635V169.89H281.676H277.718V253H281.676ZM281.676 169.89V173.849H311.132V169.89V165.932H281.676V169.89ZM311.132 169.89H307.174V253H311.132H315.09V169.89H311.132ZM311.132 253V249.042H281.676V253V256.958H311.132V253ZM325.512 253H321.554V256.958H325.512V253ZM325.512 238.079L322.347 235.701L321.554 236.758V238.079H325.512ZM359.374 193.007L362.539 195.384L363.333 194.328V193.007H359.374ZM359.374 191.847H363.333V187.889H359.374V191.847ZM326.826 191.847H322.868V195.805H326.826V191.847ZM326.826 169.89V165.932H322.868V169.89H326.826ZM394.628 169.89H398.586V165.932H394.628V169.89ZM394.628 187.285L397.816 189.632L398.586 188.585V187.285H394.628ZM363.394 229.729L360.206 227.383L359.436 228.43V229.729H363.394ZM363.394 230.889H359.436V234.847H363.394V230.889ZM396.252 230.889H400.21V226.931H396.252V230.889ZM396.252 253V256.958H400.21V253H396.252ZM325.512 253H329.47V238.079H325.512H321.554V253H325.512ZM325.512 238.079L328.677 240.457L362.539 195.384L359.374 193.007L356.209 190.629L322.347 235.701L325.512 238.079ZM359.374 193.007H363.333V191.847H359.374H355.416V193.007H359.374ZM359.374 191.847V187.889H326.826V191.847V195.805H359.374V191.847ZM326.826 191.847H330.785V169.89H326.826H322.868V191.847H326.826ZM326.826 169.89V173.849H394.628V169.89V165.932H326.826V169.89ZM394.628 169.89H390.67V187.285H394.628H398.586V169.89H394.628ZM394.628 187.285L391.44 184.939L360.206 227.383L363.394 229.729L366.583 232.075L397.816 189.632L394.628 187.285ZM363.394 229.729H359.436V230.889H363.394H367.353V229.729H363.394ZM363.394 230.889V234.847H396.252V230.889V226.931H363.394V230.889ZM396.252 230.889H392.293V253H396.252H400.21V230.889H396.252ZM396.252 253V249.042H325.512V253V256.958H396.252V253ZM406.07 253H402.112V256.958H406.07V253ZM406.07 238.079L402.905 235.701L402.112 236.758V238.079H406.07ZM439.932 193.007L443.097 195.384L443.891 194.328V193.007H439.932ZM439.932 191.847H443.891V187.889H439.932V191.847ZM407.384 191.847H403.426V195.805H407.384V191.847ZM407.384 169.89V165.932H403.426V169.89H407.384ZM475.186 169.89H479.145V165.932H475.186V169.89ZM475.186 187.285L478.374 189.632L479.145 188.585V187.285H475.186ZM443.953 229.729L440.764 227.383L439.994 228.43V229.729H443.953ZM443.953 230.889H439.994V234.847H443.953V230.889ZM476.81 230.889H480.768V226.931H476.81V230.889ZM476.81 253V256.958H480.768V253H476.81ZM406.07 253H410.028V238.079H406.07H402.112V253H406.07ZM406.07 238.079L409.235 240.457L443.097 195.384L439.932 193.007L436.768 190.629L402.905 235.701L406.07 238.079ZM439.932 193.007H443.891V191.847H439.932H435.974V193.007H439.932ZM439.932 191.847V187.889H407.384V191.847V195.805H439.932V191.847ZM407.384 191.847H411.343V169.89H407.384H403.426V191.847H407.384ZM407.384 169.89V173.849H475.186V169.89V165.932H407.384V169.89ZM475.186 169.89H471.228V187.285H475.186H479.145V169.89H475.186ZM475.186 187.285L471.998 184.939L440.764 227.383L443.953 229.729L447.141 232.075L478.374 189.632L475.186 187.285ZM443.953 229.729H439.994V230.889H443.953H447.911V229.729H443.953ZM443.953 230.889V234.847H476.81V230.889V226.931H443.953V230.889ZM476.81 230.889H472.852V253H476.81H480.768V230.889H476.81ZM476.81 253V249.042H406.07V253V256.958H476.81V253ZM491.808 253H487.85V256.958H491.808V253ZM491.808 169.89V165.932H487.85V169.89H491.808ZM521.264 169.89H525.222V165.932H521.264V169.89ZM521.264 253V256.958H525.222V253H521.264ZM491.19 148.553H495.148C495.148 145.56 496.341 143.282 498.24 141.687C500.2 140.04 503.1 138.981 506.575 138.981V135.023V131.065C501.545 131.065 496.753 132.596 493.147 135.626C489.479 138.708 487.231 143.195 487.231 148.553H491.19ZM506.575 135.023V138.981C510.003 138.981 512.883 140.036 514.837 141.683C516.73 143.279 517.924 145.559 517.924 148.553H521.882H525.841C525.841 143.196 523.594 138.712 519.94 135.631C516.347 132.601 511.573 131.065 506.575 131.065V135.023ZM521.882 148.553H517.924C517.924 151.646 516.712 153.963 514.825 155.568C512.876 157.225 510.002 158.278 506.575 158.278V162.237V166.195C511.574 166.195 516.354 164.659 519.953 161.599C523.612 158.488 525.841 153.964 525.841 148.553H521.882ZM506.575 162.237V158.278C503.1 158.278 500.207 157.22 498.252 155.564C496.359 153.96 495.148 151.645 495.148 148.553H491.19H487.231C487.231 153.964 489.461 158.491 493.134 161.604C496.745 164.663 501.545 166.195 506.575 166.195V162.237ZM491.808 253H495.767V169.89H491.808H487.85V253H491.808ZM491.808 169.89V173.849H521.264V169.89V165.932H491.808V169.89ZM521.264 169.89H517.306V253H521.264H525.222V169.89H521.264ZM521.264 253V249.042H491.808V253V256.958H521.264V253Z" fill="black" mask="url(#path-1-outside-1_886_92)"/>
</g>
<defs>
<filter id="filter0_d_886_92" x="68.2047" y="131.065" width="463.636" height="136.552" filterUnits="userSpaceOnUse" color-interpolation-filters="sRGB">
<feFlood flood-opacity="0" result="BackgroundImageFix"/>
<feColorMatrix in="SourceAlpha" type="matrix" values="0 0 0 0 0 0 0 0 0 0 0 0 0 0 0 0 0 0 127 0" result="hardAlpha"/>
<feOffset dx="6" dy="2"/>
<feComposite in2="hardAlpha" operator="out"/>
<feColorMatrix type="matrix" values="0 0 0 0 0 0 0 0 0 0 0 0 0 0 0 0 0 0 1 0"/>
<feBlend mode="normal" in2="BackgroundImageFix" result="effect1_dropShadow_886_92"/>
<feBlend mode="normal" in="SourceGraphic" in2="effect1_dropShadow_886_92" result="shape"/>
</filter>
</defs>
</svg>
