<svg width="595" height="269" viewBox="0 0 595 269" fill="none" xmlns="http://www.w3.org/2000/svg">
<g filter="url(#filter0_d_886_92)">
<mask id="path-1-outside-1_886_92" maskUnits="userSpaceOnUse" x="270.855" y="52.9692" width="308" height="156" fill="black">
<rect fill="white" x="270.855" y="52.9692" width="308" height="156"/>
<path d="M276.496 75.0124C276.496 64.7034 284.992 58.3081 295.492 58.3081C305.896 58.3081 314.391 64.7034 314.391 75.0124C314.391 85.5122 305.896 91.9075 295.492 91.9075C284.992 91.9075 276.496 85.5122 276.496 75.0124ZM277.26 203.969V101.357H313.628V203.969H277.26ZM331.382 203.969V185.547L373.19 129.898V128.466H333.005V101.357H416.717V122.834L378.154 175.238V176.67H418.721V203.969H331.382ZM430.844 203.969V185.547L472.652 129.898V128.466H432.466V101.357H516.179V122.834L477.616 175.238V176.67H518.183V203.969H430.844ZM535.937 75.0124C535.937 64.7034 544.433 58.3081 554.933 58.3081C565.337 58.3081 573.832 64.7034 573.832 75.0124C573.832 85.5122 565.337 91.9075 554.933 91.9075C544.433 91.9075 535.937 85.5122 535.937 75.0124ZM536.701 203.969V101.357H573.069V203.969H536.701Z"/>
</mask>
<path d="M276.496 75.0124C276.496 64.7034 284.992 58.3081 295.492 58.3081C305.896 58.3081 314.391 64.7034 314.391 75.0124C314.391 85.5122 305.896 91.9075 295.492 91.9075C284.992 91.9075 276.496 85.5122 276.496 75.0124ZM277.26 203.969V101.357H313.628V203.969H277.26ZM331.382 203.969V185.547L373.19 129.898V128.466H333.005V101.357H416.717V122.834L378.154 175.238V176.67H418.721V203.969H331.382ZM430.844 203.969V185.547L472.652 129.898V128.466H432.466V101.357H516.179V122.834L477.616 175.238V176.67H518.183V203.969H430.844ZM535.937 75.0124C535.937 64.7034 544.433 58.3081 554.933 58.3081C565.337 58.3081 573.832 64.7034 573.832 75.0124C573.832 85.5122 565.337 91.9075 554.933 91.9075C544.433 91.9075 535.937 85.5122 535.937 75.0124ZM536.701 203.969V101.357H573.069V203.969H536.701Z" fill="#FF0000"/>
<path d="M277.26 203.969H272.373V208.856H277.26V203.969ZM277.26 101.357V96.4702H272.373V101.357H277.26ZM313.628 101.357H318.515V96.4702H313.628V101.357ZM313.628 203.969V208.856H318.515V203.969H313.628ZM276.496 75.0124H281.384C281.384 71.3179 282.857 68.5056 285.201 66.536C287.621 64.5023 291.201 63.1953 295.492 63.1953V58.3081V53.4209C289.282 53.4209 283.365 55.3116 278.912 59.0527C274.384 62.8581 271.609 68.3979 271.609 75.0124H276.496ZM295.492 58.3081V63.1953C299.724 63.1953 303.28 64.4967 305.693 66.5306C308.03 68.5014 309.504 71.3168 309.504 75.0124H314.391H319.278C319.278 68.399 316.505 62.8622 311.993 59.0581C307.557 55.3172 301.663 53.4209 295.492 53.4209V58.3081ZM314.391 75.0124H309.504C309.504 78.8314 308.008 81.6929 305.677 83.674C303.271 85.7196 299.724 87.0203 295.492 87.0203V91.9075V96.7947C301.664 96.7947 307.566 94.8978 312.009 91.1208C316.527 87.2792 319.278 81.6932 319.278 75.0124H314.391ZM295.492 91.9075V87.0203C291.202 87.0203 287.63 85.7139 285.216 83.6685C282.879 81.6888 281.384 78.8304 281.384 75.0124H276.496H271.609C271.609 81.6942 274.362 87.2833 278.897 91.1262C283.356 94.9034 289.281 96.7947 295.492 96.7947V91.9075ZM277.26 203.969H282.147V101.357H277.26H272.373V203.969H277.26ZM277.26 101.357V106.245H313.628V101.357V96.4702H277.26V101.357ZM313.628 101.357H308.74V203.969H313.628H318.515V101.357H313.628ZM313.628 203.969V199.082H277.26V203.969V208.856H313.628V203.969ZM331.382 203.969H326.495V208.856H331.382V203.969ZM331.382 185.547L327.474 182.611L326.495 183.916V185.547H331.382ZM373.19 129.898L377.098 132.833L378.077 131.529V129.898H373.19ZM373.19 128.466H378.077V123.579H373.19V128.466ZM333.005 128.466H328.117V133.353H333.005V128.466ZM333.005 101.357V96.4702H328.117V101.357H333.005ZM416.717 101.357H421.604V96.4702H416.717V101.357ZM416.717 122.834L420.653 125.731L421.604 124.439V122.834H416.717ZM378.154 175.238L374.217 172.341L373.267 173.634V175.238H378.154ZM378.154 176.67H373.267V181.557H378.154V176.67ZM418.721 176.67H423.608V171.783H418.721V176.67ZM418.721 203.969V208.856H423.608V203.969H418.721ZM331.382 203.969H336.269V185.547H331.382H326.495V203.969H331.382ZM331.382 185.547L335.289 188.482L377.098 132.833L373.19 129.898L369.283 126.962L327.474 182.611L331.382 185.547ZM373.19 129.898H378.077V128.466H373.19H368.303V129.898H373.19ZM373.19 128.466V123.579H333.005V128.466V133.353H373.19V128.466ZM333.005 128.466H337.892V101.357H333.005H328.117V128.466H333.005ZM333.005 101.357V106.245H416.717V101.357V96.4702H333.005V101.357ZM416.717 101.357H411.83V122.834H416.717H421.604V101.357H416.717ZM416.717 122.834L412.78 119.938L374.217 172.341L378.154 175.238L382.09 178.135L420.653 125.731L416.717 122.834ZM378.154 175.238H373.267V176.67H378.154H383.041V175.238H378.154ZM378.154 176.67V181.557H418.721V176.67V171.783H378.154V176.67ZM418.721 176.67H413.834V203.969H418.721H423.608V176.67H418.721ZM418.721 203.969V199.082H331.382V203.969V208.856H418.721V203.969ZM430.844 203.969H425.957V208.856H430.844V203.969ZM430.844 185.547L426.936 182.611L425.957 183.916V185.547H430.844ZM472.652 129.898L476.559 132.833L477.539 131.529V129.898H472.652ZM472.652 128.466H477.539V123.579H472.652V128.466ZM432.466 128.466H427.579V133.353H432.466V128.466ZM432.466 101.357V96.4702H427.579V101.357H432.466ZM516.179 101.357H521.066V96.4702H516.179V101.357ZM516.179 122.834L520.115 125.731L521.066 124.439V122.834H516.179ZM477.616 175.238L473.679 172.341L472.728 173.634V175.238H477.616ZM477.616 176.67H472.728V181.557H477.616V176.67ZM518.183 176.67H523.07V171.783H518.183V176.67ZM518.183 203.969V208.856H523.07V203.969H518.183ZM430.844 203.969H435.731V185.547H430.844H425.957V203.969H430.844ZM430.844 185.547L434.751 188.482L476.559 132.833L472.652 129.898L468.745 126.962L426.936 182.611L430.844 185.547ZM472.652 129.898H477.539V128.466H472.652H467.765V129.898H472.652ZM472.652 128.466V123.579H432.466V128.466V133.353H472.652V128.466ZM432.466 128.466H437.354V101.357H432.466H427.579V128.466H432.466ZM432.466 101.357V106.245H516.179V101.357V96.4702H432.466V101.357ZM516.179 101.357H511.291V122.834H516.179H521.066V101.357H516.179ZM516.179 122.834L512.242 119.938L473.679 172.341L477.616 175.238L481.552 178.135L520.115 125.731L516.179 122.834ZM477.616 175.238H472.728V176.67H477.616H482.503V175.238H477.616ZM477.616 176.67V181.557H518.183V176.67V171.783H477.616V176.67ZM518.183 176.67H513.296V203.969H518.183H523.07V176.67H518.183ZM518.183 203.969V199.082H430.844V203.969V208.856H518.183V203.969ZM536.701 203.969H531.814V208.856H536.701V203.969ZM536.701 101.357V96.4702H531.814V101.357H536.701ZM573.069 101.357H577.956V96.4702H573.069V101.357ZM573.069 203.969V208.856H577.956V203.969H573.069ZM535.937 75.0124H540.825C540.825 71.3179 542.298 68.5056 544.642 66.536C547.062 64.5023 550.642 63.1953 554.933 63.1953V58.3081V53.4209C548.723 53.4209 542.806 55.3116 538.354 59.0527C533.825 62.8581 531.05 68.3979 531.05 75.0124H535.937ZM554.933 58.3081V63.1953C559.165 63.1953 562.721 64.4967 565.134 66.5306C567.471 68.5014 568.945 71.3168 568.945 75.0124H573.832H578.719C578.719 68.399 575.946 62.8622 571.434 59.0581C566.998 55.3172 561.104 53.4209 554.933 53.4209V58.3081ZM573.832 75.0124H568.945C568.945 78.8314 567.449 81.6929 565.118 83.674C562.712 85.7196 559.165 87.0203 554.933 87.0203V91.9075V96.7947C561.105 96.7947 567.007 94.8978 571.45 91.1208C575.968 87.2792 578.719 81.6932 578.719 75.0124H573.832ZM554.933 91.9075V87.0203C550.643 87.0203 547.071 85.7139 544.657 83.6685C542.32 81.6888 540.825 78.8304 540.825 75.0124H535.937H531.05C531.05 81.6942 533.803 87.2833 538.338 91.1262C542.797 94.9034 548.722 96.7947 554.933 96.7947V91.9075ZM536.701 203.969H541.588V101.357H536.701H531.814V203.969H536.701ZM536.701 101.357V106.245H573.069V101.357V96.4702H536.701V101.357ZM573.069 101.357H568.181V203.969H573.069H577.956V101.357H573.069ZM573.069 203.969V199.082H536.701V203.969V208.856H573.069V203.969Z" fill="black" mask="url(#path-1-outside-1_886_92)"/>
</g>
<g filter="url(#filter1_d_886_92)">
<mask id="path-3-outside-2_886_92" maskUnits="userSpaceOnUse" x="9.05615" y="65.9692" width="249" height="154" fill="black">
<rect fill="white" x="9.05615" y="65.9692" width="249" height="154"/>
<path d="M131.286 214.66H96.6363L90.1455 204.447C85.3728 205.496 80.1229 206.26 74.5866 206.26C37.2645 206.26 14.0695 181.729 14.0695 145.457V132.666C14.0695 96.012 37.2645 71.4806 74.5866 71.4806C112.1 71.4806 135.199 96.2029 135.199 132.666V145.457C135.199 164.929 128.518 180.87 116.586 191.56L131.286 214.66ZM50.8189 146.316C50.8189 167.888 59.8869 178.674 73.2503 179.342C73.7276 179.342 74.2048 179.247 74.5866 179.056L63.8959 161.97H94.4408L95.5863 163.497C97.3044 158.915 98.3544 153.188 98.3544 146.316V132.284C98.3544 111.953 88.6182 101.357 74.5866 101.357C60.5551 101.357 50.8189 111.953 50.8189 132.284V146.316ZM252.415 101.357V203.969H217.193V187.074H215.38C212.802 194.901 203.639 205.401 185.789 205.401C165.362 205.401 152.381 193.183 152.381 168.174V101.357H188.748V158.915C188.748 172.947 196.575 175.715 202.207 175.715C209.175 175.715 215.952 170.561 215.952 158.629V101.357H252.415Z"/>
</mask>
<path d="M131.286 214.66H96.6363L90.1455 204.447C85.3728 205.496 80.1229 206.26 74.5866 206.26C37.2645 206.26 14.0695 181.729 14.0695 145.457V132.666C14.0695 96.012 37.2645 71.4806 74.5866 71.4806C112.1 71.4806 135.199 96.2029 135.199 132.666V145.457C135.199 164.929 128.518 180.87 116.586 191.56L131.286 214.66ZM50.8189 146.316C50.8189 167.888 59.8869 178.674 73.2503 179.342C73.7276 179.342 74.2048 179.247 74.5866 179.056L63.8959 161.97H94.4408L95.5863 163.497C97.3044 158.915 98.3544 153.188 98.3544 146.316V132.284C98.3544 111.953 88.6182 101.357 74.5866 101.357C60.5551 101.357 50.8189 111.953 50.8189 132.284V146.316ZM252.415 101.357V203.969H217.193V187.074H215.38C212.802 194.901 203.639 205.401 185.789 205.401C165.362 205.401 152.381 193.183 152.381 168.174V101.357H188.748V158.915C188.748 172.947 196.575 175.715 202.207 175.715C209.175 175.715 215.952 170.561 215.952 158.629V101.357H252.415Z" fill="black" shape-rendering="crispEdges"/>
<path d="M131.286 214.66V219.547H140.189L135.409 212.036L131.286 214.66ZM96.6363 214.66L92.5115 217.281L93.9515 219.547H96.6363V214.66ZM90.1455 204.447L94.2702 201.825L92.4357 198.939L89.0954 199.673L90.1455 204.447ZM116.586 191.56L113.325 187.921L110.237 190.687L112.463 194.184L116.586 191.56ZM73.2503 179.342L73.0062 184.223L73.1282 184.23H73.2503V179.342ZM74.5866 179.056L76.7723 183.427L81.582 181.022L78.7297 176.464L74.5866 179.056ZM63.8959 161.97V157.083H55.073L59.7529 164.562L63.8959 161.97ZM94.4408 161.97L98.3506 159.038L96.8844 157.083H94.4408V161.97ZM95.5863 163.497L91.6765 166.43L97.0296 173.567L100.162 165.213L95.5863 163.497ZM131.286 214.66V209.773H96.6363V214.66V219.547H131.286V214.66ZM96.6363 214.66L100.761 212.039L94.2702 201.825L90.1455 204.447L86.0207 207.068L92.5115 217.281L96.6363 214.66ZM90.1455 204.447L89.0954 199.673C84.5653 200.67 79.6785 201.373 74.5866 201.373V206.26V211.147C80.5673 211.147 86.1803 210.323 91.1955 209.22L90.1455 204.447ZM74.5866 206.26V201.373C57.0263 201.373 43.2276 195.627 33.8211 186.038C24.4013 176.436 18.9567 162.541 18.9567 145.457H14.0695H9.1823C9.1823 164.645 15.3352 181.151 26.8435 192.883C38.365 204.628 54.8249 211.147 74.5866 211.147V206.26ZM14.0695 145.457H18.9567V132.666H14.0695H9.1823V145.457H14.0695ZM14.0695 132.666H18.9567C18.9567 115.378 24.4094 101.387 33.8287 91.7427C43.233 82.1132 57.0268 76.3678 74.5866 76.3678V71.4806V66.5934C54.8243 66.5934 38.3596 73.1137 26.8359 84.9134C15.3271 96.6978 9.1823 113.3 9.1823 132.666H14.0695ZM74.5866 71.4806V76.3678C92.2372 76.3678 106.054 82.1578 115.46 91.8104C124.883 101.48 130.312 115.473 130.312 132.666H135.199H140.086C140.086 113.396 133.966 96.7958 122.461 84.9889C110.938 73.1646 94.4491 66.5934 74.5866 66.5934V71.4806ZM135.199 132.666H130.312V145.457H135.199H140.086V132.666H135.199ZM135.199 145.457H130.312C130.312 163.784 124.053 178.308 113.325 187.921L116.586 191.56L119.847 195.2C132.982 183.431 140.086 166.074 140.086 145.457H135.199ZM116.586 191.56L112.463 194.184L127.163 217.284L131.286 214.66L135.409 212.036L120.709 188.937L116.586 191.56ZM50.8189 146.316H45.9317C45.9317 157.707 48.3151 166.928 53.0552 173.521C57.9132 180.278 64.9314 183.82 73.0062 184.223L73.2503 179.342L73.4944 174.461C68.2058 174.197 64.0083 172.011 60.9914 167.815C57.8566 163.455 55.7061 156.497 55.7061 146.316H50.8189ZM73.2503 179.342V184.23C74.315 184.23 75.5737 184.027 76.7723 183.427L74.5866 179.056L72.401 174.685C72.6382 174.566 72.8293 174.513 72.9474 174.488C73.0697 174.463 73.1694 174.455 73.2503 174.455V179.342ZM74.5866 179.056L78.7297 176.464L68.0389 159.378L63.8959 161.97L59.7529 164.562L70.4436 181.648L74.5866 179.056ZM63.8959 161.97V166.857H94.4408V161.97V157.083H63.8959V161.97ZM94.4408 161.97L90.5311 164.902L91.6765 166.43L95.5863 163.497L99.496 160.565L98.3506 159.038L94.4408 161.97ZM95.5863 163.497L100.162 165.213C102.118 159.998 103.242 153.676 103.242 146.316H98.3544H93.4672C93.4672 152.7 92.4908 157.833 91.0103 161.781L95.5863 163.497ZM98.3544 146.316H103.242V132.284H98.3544H93.4672V146.316H98.3544ZM98.3544 132.284H103.242C103.242 121.4 100.64 112.453 95.5358 106.127C90.3332 99.6798 82.9359 96.4702 74.5866 96.4702V101.357V106.245C80.269 106.245 84.7555 108.333 87.9289 112.265C91.2006 116.32 93.4672 122.836 93.4672 132.284H98.3544ZM74.5866 101.357V96.4702C66.2374 96.4702 58.8401 99.6798 53.6375 106.127C48.5331 112.453 45.9317 121.4 45.9317 132.284H50.8189H55.7061C55.7061 122.836 57.9727 116.32 61.2443 112.265C64.4177 108.333 68.9043 106.245 74.5866 106.245V101.357ZM50.8189 132.284H45.9317V146.316H50.8189H55.7061V132.284H50.8189ZM252.415 101.357H257.303V96.4702H252.415V101.357ZM252.415 203.969V208.856H257.303V203.969H252.415ZM217.193 203.969H212.306V208.856H217.193V203.969ZM217.193 187.074H222.08V182.187H217.193V187.074ZM215.38 187.074V182.187H211.844L210.738 185.546L215.38 187.074ZM152.381 101.357V96.4702H147.494V101.357H152.381ZM188.748 101.357H193.635V96.4702H188.748V101.357ZM215.952 101.357V96.4702H211.065V101.357H215.952ZM252.415 101.357H247.528V203.969H252.415H257.303V101.357H252.415ZM252.415 203.969V199.082H217.193V203.969V208.856H252.415V203.969ZM217.193 203.969H222.08V187.074H217.193H212.306V203.969H217.193ZM217.193 187.074V182.187H215.38V187.074V191.961H217.193V187.074ZM215.38 187.074L210.738 185.546C208.787 191.47 201.424 200.514 185.789 200.514V205.401V210.288C205.854 210.288 216.818 198.332 220.022 188.603L215.38 187.074ZM185.789 205.401V200.514C176.556 200.514 169.638 197.777 164.989 192.822C160.3 187.824 157.268 179.876 157.268 168.174H152.381H147.494C147.494 181.481 150.953 192.147 157.861 199.51C164.809 206.916 174.595 210.288 185.789 210.288V205.401ZM152.381 168.174H157.268V101.357H152.381H147.494V168.174H152.381ZM152.381 101.357V106.245H188.748V101.357V96.4702H152.381V101.357ZM188.748 101.357H183.861V158.915H188.748H193.635V101.357H188.748ZM188.748 158.915H183.861C183.861 166.834 186.094 172.53 190.058 176.175C193.939 179.742 198.68 180.602 202.207 180.602V175.715V170.828C200.103 170.828 198.114 170.304 196.673 168.979C195.317 167.732 193.635 165.028 193.635 158.915H188.748ZM202.207 175.715V180.602C206.912 180.602 211.701 178.844 215.285 174.961C218.867 171.078 220.84 165.522 220.84 158.629H215.952H211.065C211.065 163.668 209.649 166.654 208.101 168.332C206.554 170.009 204.471 170.828 202.207 170.828V175.715ZM215.952 158.629H220.84V101.357H215.952H211.065V158.629H215.952ZM215.952 101.357V106.245H252.415V101.357V96.4702H215.952V101.357Z" fill="white" fill-opacity="0.13" mask="url(#path-3-outside-2_886_92)"/>
</g>
<defs>
<filter id="filter0_d_886_92" x="271.609" y="53.4209" width="314.518" height="157.905" filterUnits="userSpaceOnUse" color-interpolation-filters="sRGB">
<feFlood flood-opacity="0" result="BackgroundImageFix"/>
<feColorMatrix in="SourceAlpha" type="matrix" values="0 0 0 0 0 0 0 0 0 0 0 0 0 0 0 0 0 0 127 0" result="hardAlpha"/>
<feOffset dx="7.40795" dy="2.46932"/>
<feComposite in2="hardAlpha" operator="out"/>
<feColorMatrix type="matrix" values="0 0 0 0 0 0 0 0 0 0 0 0 0 0 0 0 0 0 1 0"/>
<feBlend mode="normal" in2="BackgroundImageFix" result="effect1_dropShadow_886_92"/>
<feBlend mode="normal" in="SourceGraphic" in2="effect1_dropShadow_886_92" result="shape"/>
</filter>
<filter id="filter1_d_886_92" x="9.18231" y="66.5933" width="255.528" height="155.423" filterUnits="userSpaceOnUse" color-interpolation-filters="sRGB">
<feFlood flood-opacity="0" result="BackgroundImageFix"/>
<feColorMatrix in="SourceAlpha" type="matrix" values="0 0 0 0 0 0 0 0 0 0 0 0 0 0 0 0 0 0 127 0" result="hardAlpha"/>
<feOffset dx="7.40795" dy="2.46932"/>
<feComposite in2="hardAlpha" operator="out"/>
<feColorMatrix type="matrix" values="0 0 0 0 0 0 0 0 0 0 0 0 0 0 0 0 0 0 1 0"/>
<feBlend mode="normal" in2="BackgroundImageFix" result="effect1_dropShadow_886_92"/>
<feBlend mode="normal" in="SourceGraphic" in2="effect1_dropShadow_886_92" result="shape"/>
</filter>
</defs>
</svg>
